<svg xmlns="http://www.w3.org/2000/svg" xmlns:xlink="http://www.w3.org/1999/xlink" xmlns:inkscape="http://www.inkscape.org/namespaces/inkscape" version="1.1" width="595.276" height="841.89" viewBox="0 0 595.276 841.89">
<defs>
<clipPath id="clip_2">
<path transform="matrix(1,0,0,-1,0,841.89)" d="M0 841.89H595.276V0H0Z"/>
</clipPath>
</defs>
<g inkscape:groupmode="layer" inkscape:label="Layer 1">
<path transform="matrix(1,0,0,-1,0,841.89)" d="M0 413.87H595.275V841.89H0Z" fill="#0c1318"/>
<g clip-path="url(#clip_2)">
<path transform="matrix(1,0,0,-1,178.2645,88.03491)" d="M0 0H77.773C77.773 0 120.037-63.993 114.431-61.228 89.42-97.783 116.155-140.676 159.209-136.021L178.648-168.491C147.633-195.825 164.994-260.676 225.271-246.365L232.311-258.123H154.537L130.75-218.392C157.335-182.549 129.531-130.935 82.172-137.252L59.451-99.302C99.633-64.081 68.483 7.409 8.21-13.713Z" fill="#ed1c24"/>
<path transform="matrix(1,0,0,-1,178.2645,88.03491)" stroke-width="2" stroke-linecap="butt" stroke-miterlimit="10" stroke-linejoin="miter" fill="none" stroke="#ed1c24" d="M0 0H77.773C77.773 0 120.037-63.993 114.431-61.228 89.42-97.783 116.155-140.676 159.209-136.021L178.648-168.491C147.633-195.825 164.994-260.676 225.271-246.365L232.311-258.123H154.537L130.75-218.392C157.335-182.549 129.531-130.935 82.172-137.252L59.451-99.302C99.633-64.081 68.483 7.409 8.21-13.713L0 0Z"/>
<path transform="matrix(1,0,0,-1,362.7791,176.59302)" stroke-width="2" stroke-linecap="butt" stroke-miterlimit="10" stroke-linejoin="miter" fill="none" stroke="#ed1c24" d="M0 0C0-18.877-15.303-34.18-34.18-34.18-53.057-34.18-68.359-18.877-68.359 0-68.359 18.877-53.057 34.18-34.18 34.18-15.303 34.18 0 18.877 0 0Z"/>
<path transform="matrix(1,0,0,-1,305.5877,271.57203)" stroke-width="2" stroke-linecap="butt" stroke-miterlimit="10" stroke-linejoin="miter" fill="none" stroke="#ed1c24" d="M0 0C0-18.877-15.303-34.18-34.18-34.18-53.057-34.18-68.359-18.877-68.359 0-68.359 18.877-53.057 34.18-34.18 34.18-15.303 34.18 0 18.877 0 0Z"/>
<path transform="matrix(1,0,0,-1,422.5242,290.97633)" d="M0 0C0-18.877-15.303-34.18-34.18-34.18-53.057-34.18-68.359-18.877-68.359 0-68.359 18.877-53.057 34.18-34.18 34.18-15.303 34.18 0 18.877 0 0" fill="#ed1c24"/>
<path transform="matrix(1,0,0,-1,422.5242,290.97633)" stroke-width="2" stroke-linecap="butt" stroke-miterlimit="10" stroke-linejoin="miter" fill="none" stroke="#ed1c24" d="M0 0C0-18.877-15.303-34.18-34.18-34.18-53.057-34.18-68.359-18.877-68.359 0-68.359 18.877-53.057 34.18-34.18 34.18-15.303 34.18 0 18.877 0 0Z"/>
<path transform="matrix(1,0,0,-1,244.8221,146.86603)" d="M0 0C0-21.002-17.026-38.027-38.028-38.027-59.03-38.027-76.056-21.002-76.056 0-76.056 21.002-59.03 38.027-38.028 38.027-17.026 38.027 0 21.002 0 0" fill="#ed1c24"/>
<path transform="matrix(1,0,0,-1,244.8221,146.86603)" stroke-width="2" stroke-linecap="butt" stroke-miterlimit="10" stroke-linejoin="miter" fill="none" stroke="#ed1c24" d="M0 0C0-21.002-17.026-38.027-38.028-38.027-59.03-38.027-76.056-21.002-76.056 0-76.056 21.002-59.03 38.027-38.028 38.027-17.026 38.027 0 21.002 0 0Z"/>
<path transform="matrix(1,0,0,-1,353.3924,176.59302)" stroke-width="2" stroke-linecap="butt" stroke-miterlimit="10" stroke-linejoin="miter" fill="none" stroke="#ed1c24" d="M0 0C0-13.693-11.101-24.793-24.793-24.793-38.485-24.793-49.586-13.693-49.586 0-49.586 13.693-38.485 24.793-24.793 24.793-11.101 24.793 0 13.693 0 0Z"/>
<path transform="matrix(1,0,0,-1,298.4138,271.57203)" stroke-width="2" stroke-linecap="butt" stroke-miterlimit="10" stroke-linejoin="miter" fill="none" stroke="#ed1c24" d="M0 0C0-14.915-12.091-27.006-27.006-27.006-41.921-27.006-54.012-14.915-54.012 0-54.012 14.915-41.921 27.006-27.006 27.006-12.091 27.006 0 14.915 0 0Z"/>
<path transform="matrix(1,0,0,-1,350.8025,150.61841)" stroke-width="2" stroke-linecap="butt" stroke-miterlimit="10" stroke-linejoin="miter" fill="none" stroke="#ed1c24" d="M0 0 51.551 68.756"/>
<path transform="matrix(1,0,0,-1,244.8221,291.9709)" stroke-width="2" stroke-linecap="butt" stroke-miterlimit="10" stroke-linejoin="miter" fill="none" stroke="#ed1c24" d="M0 0-36-48.015"/>
<path transform="matrix(1,0,0,-1,180.2566,490.76493)" d="M0 0H77.774C77.774 0 120.037-63.992 114.431-61.228 89.42-97.782 116.155-140.676 159.209-136.021L178.648-168.49C147.633-195.825 164.994-260.676 225.271-246.365L232.312-258.123H154.537L130.75-218.392C157.335-182.549 129.532-130.935 82.172-137.251L59.452-99.302C99.633-64.08 68.484 7.409 8.21-13.712Z" fill="#ed1c24"/>
<path transform="matrix(1,0,0,-1,180.2566,490.76493)" stroke-width="4" stroke-linecap="butt" stroke-miterlimit="10" stroke-linejoin="miter" fill="none" stroke="#ed1c24" d="M0 0H77.774C77.774 0 120.037-63.992 114.431-61.228 89.42-97.782 116.155-140.676 159.209-136.021L178.648-168.49C147.633-195.825 164.994-260.676 225.271-246.365L232.312-258.123H154.537L130.75-218.392C157.335-182.549 129.532-130.935 82.172-137.251L59.452-99.302C99.633-64.08 68.484 7.409 8.21-13.712L0 0Z"/>
<path transform="matrix(1,0,0,-1,364.7713,579.3225)" stroke-width="4" stroke-linecap="butt" stroke-miterlimit="10" stroke-linejoin="miter" fill="none" stroke="#ed1c24" d="M0 0C0-18.877-15.303-34.18-34.18-34.18-53.056-34.18-68.359-18.877-68.359 0-68.359 18.877-53.056 34.18-34.18 34.18-15.303 34.18 0 18.877 0 0Z"/>
<path transform="matrix(1,0,0,-1,307.5799,674.301)" stroke-width="4" stroke-linecap="butt" stroke-miterlimit="10" stroke-linejoin="miter" fill="none" stroke="#ed1c24" d="M0 0C0-18.877-15.303-34.18-34.18-34.18-53.057-34.18-68.359-18.877-68.359 0-68.359 18.877-53.057 34.18-34.18 34.18-15.303 34.18 0 18.877 0 0Z"/>
<path transform="matrix(1,0,0,-1,424.5164,693.7053)" d="M0 0C0-18.877-15.303-34.18-34.18-34.18-53.057-34.18-68.359-18.877-68.359 0-68.359 18.877-53.057 34.18-34.18 34.18-15.303 34.18 0 18.877 0 0" fill="#ed1c24"/>
<path transform="matrix(1,0,0,-1,424.5164,693.7053)" stroke-width="4" stroke-linecap="butt" stroke-miterlimit="10" stroke-linejoin="miter" fill="none" stroke="#ed1c24" d="M0 0C0-18.877-15.303-34.18-34.18-34.18-53.057-34.18-68.359-18.877-68.359 0-68.359 18.877-53.057 34.18-34.18 34.18-15.303 34.18 0 18.877 0 0Z"/>
<path transform="matrix(1,0,0,-1,246.8143,549.59597)" d="M0 0C0-21.002-17.025-38.027-38.027-38.027-59.029-38.027-76.055-21.002-76.055 0-76.055 21.002-59.029 38.028-38.027 38.028-17.025 38.028 0 21.002 0 0" fill="#ed1c24"/>
<path transform="matrix(1,0,0,-1,246.8143,549.59597)" stroke-width="4" stroke-linecap="butt" stroke-miterlimit="10" stroke-linejoin="miter" fill="none" stroke="#ed1c24" d="M0 0C0-21.002-17.025-38.027-38.027-38.027-59.029-38.027-76.055-21.002-76.055 0-76.055 21.002-59.029 38.028-38.027 38.028-17.025 38.028 0 21.002 0 0Z"/>
<path transform="matrix(1,0,0,-1,355.3855,579.3225)" stroke-width="4" stroke-linecap="butt" stroke-miterlimit="10" stroke-linejoin="miter" fill="none" stroke="#ed1c24" d="M0 0C0-13.693-11.101-24.793-24.794-24.793-38.486-24.793-49.587-13.693-49.587 0-49.587 13.692-38.486 24.793-24.794 24.793-11.101 24.793 0 13.692 0 0Z"/>
<path transform="matrix(1,0,0,-1,300.406,674.301)" stroke-width="4" stroke-linecap="butt" stroke-miterlimit="10" stroke-linejoin="miter" fill="none" stroke="#ed1c24" d="M0 0C0-14.915-12.091-27.006-27.006-27.006-41.92-27.006-54.012-14.915-54.012 0-54.012 14.914-41.92 27.006-27.006 27.006-12.091 27.006 0 14.914 0 0Z"/>
<path transform="matrix(1,0,0,-1,352.7957,553.3479)" stroke-width="4" stroke-linecap="butt" stroke-miterlimit="10" stroke-linejoin="miter" fill="none" stroke="#ed1c24" d="M0 0 51.551 68.756"/>
<path transform="matrix(1,0,0,-1,246.8143,694.70046)" stroke-width="4" stroke-linecap="butt" stroke-miterlimit="10" stroke-linejoin="miter" fill="none" stroke="#ed1c24" d="M0 0-36-48.015"/>
</g>
</g>
</svg>
