<svg xmlns="http://www.w3.org/2000/svg" xmlns:xlink="http://www.w3.org/1999/xlink" xmlns:inkscape="http://www.inkscape.org/namespaces/inkscape" version="1.1" width="595.276" height="841.89" viewBox="0 0 595.276 841.89">
<defs>
<clipPath id="clip_0">
<path transform="matrix(1,0,0,-1,0,841.89)" d="M0 841.89H595.276V0H0Z"/>
</clipPath>
<clipPath id="clip_1">
<path transform="matrix(1,0,0,-1,0,841.89)" d="M0 841.89H595.276V0H0Z"/>
</clipPath>
</defs>
<g inkscape:groupmode="layer" inkscape:label="Layer 1">
<path transform="matrix(1,0,0,-1,0,841.89)" d="M0 413.87H595.275V841.89H0Z" fill="#0c1318"/>
<g clip-path="url(#clip_0)">
<path transform="matrix(1,0,0,-1,183.4277,332.5389)" stroke-width="6" stroke-linecap="butt" stroke-miterlimit="10" stroke-linejoin="miter" fill="none" stroke="#ed1c24" d="M0 0H60.89L111.845 78.836C117.614 68.366 122.741 59.072 127.228 50.955 131.715 42.833 136.947 34.075 142.931 24.676L158.634 0H220.165L145.174 118.575 220.165 237.15H159.596L112.166 158.634C106.823 168.459 101.96 177.167 97.584 184.753 93.203 192.334 88.876 199.44 84.605 206.064L64.736 237.15H2.884L79.157 118.575 0 0Z"/>
</g>
<path transform="matrix(1,0,0,-1,187.4443,96.052)" stroke-width="1" stroke-linecap="butt" stroke-miterlimit="10" stroke-linejoin="miter" fill="none" stroke="#ed1c24" d="M0 0 75.43-23.865 153.322-233.537 207.541-225.013 106.854-74.904 175.578-58.384 190.068 0 138.076-25.144 142.338-120.177 34.945-176.004 31.109-51.139 58.384 0 126.996-38.354 56.253-231.832 8.097-215.211 106.114-152.566 213.081-233.537 7.245-11.08 0-229.275 133.814-203.279 198.591-26.422 46.025-155.123"/>
<path transform="matrix(1,0,0,-1,236.4526,92.44159)" stroke-width="1" stroke-linecap="butt" stroke-miterlimit="10" stroke-linejoin="miter" fill="none" stroke="#ed1c24" d="M0 0 24.717-122.509 132.962-237.147 155.123-3.61-18.751-237.147-43.042-223.083 131.258-3.61-1.705-79.467"/>
<g clip-path="url(#clip_1)">
<path transform="matrix(1,0,0,-1,255.2554,165.34943)" d="M0 0C0-4.371-3.543-7.915-7.915-7.915-12.286-7.915-15.83-4.371-15.83 0-15.83 4.372-12.286 7.915-7.915 7.915-3.543 7.915 0 4.372 0 0" fill="#ed1c24"/>
<path transform="matrix(1,0,0,-1,255.2554,165.34943)" stroke-width="1" stroke-linecap="butt" stroke-miterlimit="10" stroke-linejoin="miter" fill="none" stroke="#ed1c24" d="M0 0C0-4.371-3.543-7.915-7.915-7.915-12.286-7.915-15.83-4.371-15.83 0-15.83 4.372-12.286 7.915-7.915 7.915-3.543 7.915 0 4.372 0 0Z"/>
<path transform="matrix(1,0,0,-1,380.3613,309.60475)" d="M0 0C0-4.371-3.543-7.915-7.914-7.915-12.286-7.915-15.829-4.371-15.829 0-15.829 4.372-12.286 7.915-7.914 7.915-3.543 7.915 0 4.372 0 0" fill="#ed1c24"/>
<path transform="matrix(1,0,0,-1,380.3613,309.60475)" stroke-width="1" stroke-linecap="butt" stroke-miterlimit="10" stroke-linejoin="miter" fill="none" stroke="#ed1c24" d="M0 0C0-4.371-3.543-7.915-7.914-7.915-12.286-7.915-15.829-4.371-15.829 0-15.829 4.372-12.286 7.915-7.914 7.915-3.543 7.915 0 4.372 0 0Z"/>
<path transform="matrix(1,0,0,-1,274.4043,266.93635)" d="M0 0C0-4.372-3.543-7.915-7.915-7.915-12.286-7.915-15.83-4.372-15.83 0-15.83 4.371-12.286 7.915-7.915 7.915-3.543 7.915 0 4.371 0 0" fill="#ed1c24"/>
<path transform="matrix(1,0,0,-1,274.4043,266.93635)" stroke-width="1" stroke-linecap="butt" stroke-miterlimit="10" stroke-linejoin="miter" fill="none" stroke="#ed1c24" d="M0 0C0-4.372-3.543-7.915-7.915-7.915-12.286-7.915-15.83-4.372-15.83 0-15.83 4.371-12.286 7.915-7.915 7.915-3.543 7.915 0 4.371 0 0Z"/>
<path transform="matrix(1,0,0,-1,314.3301,128.80884)" d="M0 0C0-4.371-3.544-7.915-7.915-7.915-12.286-7.915-15.83-4.371-15.83 0-15.83 4.372-12.286 7.915-7.915 7.915-3.544 7.915 0 4.372 0 0" fill="#ed1c24"/>
<path transform="matrix(1,0,0,-1,314.3301,128.80884)" stroke-width="1" stroke-linecap="butt" stroke-miterlimit="10" stroke-linejoin="miter" fill="none" stroke="#ed1c24" d="M0 0C0-4.371-3.544-7.915-7.915-7.915-12.286-7.915-15.83-4.371-15.83 0-15.83 4.372-12.286 7.915-7.915 7.915-3.544 7.915 0 4.372 0 0Z"/>
<path transform="matrix(1,0,0,-1,227.936,183.7024)" d="M0 0C0-4.371-3.543-7.915-7.915-7.915-12.286-7.915-15.83-4.371-15.83 0-15.83 4.371-12.286 7.915-7.915 7.915-3.543 7.915 0 4.371 0 0" fill="#ed1c24"/>
<path transform="matrix(1,0,0,-1,227.936,183.7024)" stroke-width="1" stroke-linecap="butt" stroke-miterlimit="10" stroke-linejoin="miter" fill="none" stroke="#ed1c24" d="M0 0C0-4.371-3.543-7.915-7.915-7.915-12.286-7.915-15.83-4.371-15.83 0-15.83 4.371-12.286 7.915-7.915 7.915-3.543 7.915 0 4.371 0 0Z"/>
<path transform="matrix(1,0,0,-1,342.5742,259.02174)" d="M0 0C0-4.371-3.543-7.915-7.915-7.915-12.286-7.915-15.829-4.371-15.829 0-15.829 4.372-12.286 7.915-7.915 7.915-3.543 7.915 0 4.372 0 0" fill="#ed1c24"/>
<path transform="matrix(1,0,0,-1,342.5742,259.02174)" stroke-width="1" stroke-linecap="butt" stroke-miterlimit="10" stroke-linejoin="miter" fill="none" stroke="#ed1c24" d="M0 0C0-4.371-3.543-7.915-7.915-7.915-12.286-7.915-15.829-4.371-15.829 0-15.829 4.372-12.286 7.915-7.915 7.915-3.543 7.915 0 4.372 0 0Z"/>
<path transform="matrix(1,0,0,-1,247.3403,111.221439)" d="M0 0C0-4.372-3.543-7.915-7.915-7.915-12.286-7.915-15.83-4.372-15.83 0-15.83 4.371-12.286 7.915-7.915 7.915-3.543 7.915 0 4.371 0 0" fill="#ed1c24"/>
<path transform="matrix(1,0,0,-1,247.3403,111.221439)" stroke-width="1" stroke-linecap="butt" stroke-miterlimit="10" stroke-linejoin="miter" fill="none" stroke="#ed1c24" d="M0 0C0-4.372-3.543-7.915-7.915-7.915-12.286-7.915-15.83-4.372-15.83 0-15.83 4.371-12.286 7.915-7.915 7.915-3.543 7.915 0 4.371 0 0Z"/>
<path transform="matrix(1,0,0,-1,384.1914,253.14923)" d="M0 0C0-4.371-3.544-7.915-7.915-7.915-12.286-7.915-15.83-4.371-15.83 0-15.83 4.371-12.286 7.915-7.915 7.915-3.544 7.915 0 4.371 0 0" fill="#ed1c24"/>
<path transform="matrix(1,0,0,-1,384.1914,253.14923)" stroke-width="1" stroke-linecap="butt" stroke-miterlimit="10" stroke-linejoin="miter" fill="none" stroke="#ed1c24" d="M0 0C0-4.371-3.544-7.915-7.915-7.915-12.286-7.915-15.83-4.371-15.83 0-15.83 4.371-12.286 7.915-7.915 7.915-3.544 7.915 0 4.371 0 0Z"/>
<path transform="matrix(1,0,0,-1,334.6592,163.27661)" d="M0 0C0-4.372-3.543-7.915-7.914-7.915-12.286-7.915-15.829-4.372-15.829 0-15.829 4.371-12.286 7.915-7.914 7.915-3.543 7.915 0 4.371 0 0" fill="#ed1c24"/>
<path transform="matrix(1,0,0,-1,334.6592,163.27661)" stroke-width="1" stroke-linecap="butt" stroke-miterlimit="10" stroke-linejoin="miter" fill="none" stroke="#ed1c24" d="M0 0C0-4.372-3.543-7.915-7.914-7.915-12.286-7.915-15.829-4.372-15.829 0-15.829 4.371-12.286 7.915-7.914 7.915-3.543 7.915 0 4.371 0 0Z"/>
<path transform="matrix(1,0,0,-1,306.415,218.93042)" d="M0 0C0-4.371-3.544-7.915-7.915-7.915-12.286-7.915-15.83-4.371-15.83 0-15.83 4.372-12.286 7.915-7.915 7.915-3.544 7.915 0 4.372 0 0" fill="#ed1c24"/>
<path transform="matrix(1,0,0,-1,306.415,218.93042)" stroke-width="1" stroke-linecap="butt" stroke-miterlimit="10" stroke-linejoin="miter" fill="none" stroke="#ed1c24" d="M0 0C0-4.371-3.544-7.915-7.915-7.915-12.286-7.915-15.83-4.371-15.83 0-15.83 4.372-12.286 7.915-7.915 7.915-3.544 7.915 0 4.372 0 0Z"/>
<path transform="matrix(1,0,0,-1,184.9209,751.8378)" stroke-width="6" stroke-linecap="butt" stroke-miterlimit="10" stroke-linejoin="miter" fill="none" stroke="#ed1c24" d="M0 0H60.89L111.845 78.836C117.614 68.366 122.741 59.072 127.228 50.955 131.715 42.833 136.947 34.075 142.931 24.676L158.634 0H220.165L145.174 118.575 220.165 237.15H159.596L112.166 158.634C106.823 168.459 101.96 177.167 97.584 184.753 93.203 192.334 88.876 199.44 84.605 206.064L64.736 237.15H2.884L79.157 118.575 0 0Z"/>
<path transform="matrix(1,0,0,-1,188.937,515.3508)" stroke-width="1" stroke-linecap="butt" stroke-miterlimit="10" stroke-linejoin="miter" fill="none" stroke="#ed1c24" d="M0 0 75.431-23.864 153.323-233.537 207.541-225.013 106.854-74.904 175.579-58.384 190.068 0 138.077-25.144 142.338-120.177 34.945-176.004 31.11-51.139 58.384 0 126.997-38.354 56.253-231.832 8.097-215.211 106.114-152.565 213.081-233.537 7.245-11.08 0-229.274 133.815-203.278 198.591-26.422 46.025-155.122"/>
<path transform="matrix(1,0,0,-1,237.9458,511.7405)" stroke-width="1" stroke-linecap="butt" stroke-miterlimit="10" stroke-linejoin="miter" fill="none" stroke="#ed1c24" d="M0 0 24.717-122.509 132.962-237.147 155.123-3.61-18.751-237.147-43.042-223.083 131.257-3.61-1.705-79.467"/>
<path transform="matrix(1,0,0,-1,256.7485,584.6477)" d="M0 0C0-4.371-3.544-7.915-7.915-7.915-12.286-7.915-15.83-4.371-15.83 0-15.83 4.371-12.286 7.915-7.915 7.915-3.544 7.915 0 4.371 0 0" fill="#ed1c24"/>
<path transform="matrix(1,0,0,-1,256.7485,584.6477)" stroke-width="1" stroke-linecap="butt" stroke-miterlimit="10" stroke-linejoin="miter" fill="none" stroke="#ed1c24" d="M0 0C0-4.371-3.544-7.915-7.915-7.915-12.286-7.915-15.83-4.371-15.83 0-15.83 4.371-12.286 7.915-7.915 7.915-3.544 7.915 0 4.371 0 0Z"/>
<path transform="matrix(1,0,0,-1,381.8545,728.9035)" d="M0 0C0-4.371-3.543-7.914-7.915-7.914-12.286-7.914-15.829-4.371-15.829 0-15.829 4.372-12.286 7.915-7.915 7.915-3.543 7.915 0 4.372 0 0" fill="#ed1c24"/>
<path transform="matrix(1,0,0,-1,381.8545,728.9035)" stroke-width="1" stroke-linecap="butt" stroke-miterlimit="10" stroke-linejoin="miter" fill="none" stroke="#ed1c24" d="M0 0C0-4.371-3.543-7.914-7.915-7.914-12.286-7.914-15.829-4.371-15.829 0-15.829 4.372-12.286 7.915-7.915 7.915-3.543 7.915 0 4.372 0 0Z"/>
<path transform="matrix(1,0,0,-1,275.8975,686.2346)" d="M0 0C0-4.372-3.544-7.915-7.915-7.915-12.286-7.915-15.83-4.372-15.83 0-15.83 4.371-12.286 7.914-7.915 7.914-3.544 7.914 0 4.371 0 0" fill="#ed1c24"/>
<path transform="matrix(1,0,0,-1,275.8975,686.2346)" stroke-width="1" stroke-linecap="butt" stroke-miterlimit="10" stroke-linejoin="miter" fill="none" stroke="#ed1c24" d="M0 0C0-4.372-3.544-7.915-7.915-7.915-12.286-7.915-15.83-4.372-15.83 0-15.83 4.371-12.286 7.914-7.915 7.914-3.544 7.914 0 4.371 0 0Z"/>
<path transform="matrix(1,0,0,-1,315.8232,548.1077)" d="M0 0C0-4.371-3.544-7.915-7.915-7.915-12.286-7.915-15.83-4.371-15.83 0-15.83 4.372-12.286 7.915-7.915 7.915-3.544 7.915 0 4.372 0 0" fill="#ed1c24"/>
<path transform="matrix(1,0,0,-1,315.8232,548.1077)" stroke-width="1" stroke-linecap="butt" stroke-miterlimit="10" stroke-linejoin="miter" fill="none" stroke="#ed1c24" d="M0 0C0-4.371-3.544-7.915-7.915-7.915-12.286-7.915-15.83-4.371-15.83 0-15.83 4.372-12.286 7.915-7.915 7.915-3.544 7.915 0 4.372 0 0Z"/>
<path transform="matrix(1,0,0,-1,229.4292,603.0012)" d="M0 0C0-4.371-3.543-7.915-7.915-7.915-12.286-7.915-15.83-4.371-15.83 0-15.83 4.371-12.286 7.915-7.915 7.915-3.543 7.915 0 4.371 0 0" fill="#ed1c24"/>
<path transform="matrix(1,0,0,-1,229.4292,603.0012)" stroke-width="1" stroke-linecap="butt" stroke-miterlimit="10" stroke-linejoin="miter" fill="none" stroke="#ed1c24" d="M0 0C0-4.371-3.543-7.915-7.915-7.915-12.286-7.915-15.83-4.371-15.83 0-15.83 4.371-12.286 7.915-7.915 7.915-3.543 7.915 0 4.371 0 0Z"/>
<path transform="matrix(1,0,0,-1,344.0674,678.3205)" d="M0 0C0-4.371-3.544-7.914-7.915-7.914-12.286-7.914-15.83-4.371-15.83 0-15.83 4.372-12.286 7.915-7.915 7.915-3.544 7.915 0 4.372 0 0" fill="#ed1c24"/>
<path transform="matrix(1,0,0,-1,344.0674,678.3205)" stroke-width="1" stroke-linecap="butt" stroke-miterlimit="10" stroke-linejoin="miter" fill="none" stroke="#ed1c24" d="M0 0C0-4.371-3.544-7.914-7.915-7.914-12.286-7.914-15.83-4.371-15.83 0-15.83 4.372-12.286 7.915-7.915 7.915-3.544 7.915 0 4.372 0 0Z"/>
<path transform="matrix(1,0,0,-1,248.8335,530.5198)" d="M0 0C0-4.372-3.543-7.915-7.915-7.915-12.286-7.915-15.83-4.372-15.83 0-15.83 4.371-12.286 7.914-7.915 7.914-3.543 7.914 0 4.371 0 0" fill="#ed1c24"/>
<path transform="matrix(1,0,0,-1,248.8335,530.5198)" stroke-width="1" stroke-linecap="butt" stroke-miterlimit="10" stroke-linejoin="miter" fill="none" stroke="#ed1c24" d="M0 0C0-4.372-3.543-7.915-7.915-7.915-12.286-7.915-15.83-4.372-15.83 0-15.83 4.371-12.286 7.914-7.915 7.914-3.543 7.914 0 4.371 0 0Z"/>
<path transform="matrix(1,0,0,-1,385.6846,672.4475)" d="M0 0C0-4.371-3.544-7.915-7.915-7.915-12.286-7.915-15.83-4.371-15.83 0-15.83 4.371-12.286 7.915-7.915 7.915-3.544 7.915 0 4.371 0 0" fill="#ed1c24"/>
<path transform="matrix(1,0,0,-1,385.6846,672.4475)" stroke-width="1" stroke-linecap="butt" stroke-miterlimit="10" stroke-linejoin="miter" fill="none" stroke="#ed1c24" d="M0 0C0-4.371-3.544-7.915-7.915-7.915-12.286-7.915-15.83-4.371-15.83 0-15.83 4.371-12.286 7.915-7.915 7.915-3.544 7.915 0 4.371 0 0Z"/>
<path transform="matrix(1,0,0,-1,336.1523,582.57546)" d="M0 0C0-4.371-3.543-7.915-7.915-7.915-12.286-7.915-15.829-4.371-15.829 0-15.829 4.371-12.286 7.915-7.915 7.915-3.543 7.915 0 4.371 0 0" fill="#ed1c24"/>
<path transform="matrix(1,0,0,-1,336.1523,582.57546)" stroke-width="1" stroke-linecap="butt" stroke-miterlimit="10" stroke-linejoin="miter" fill="none" stroke="#ed1c24" d="M0 0C0-4.371-3.543-7.915-7.915-7.915-12.286-7.915-15.829-4.371-15.829 0-15.829 4.371-12.286 7.915-7.915 7.915-3.543 7.915 0 4.371 0 0Z"/>
<path transform="matrix(1,0,0,-1,307.9082,638.2287)" d="M0 0C0-4.371-3.544-7.915-7.915-7.915-12.287-7.915-15.83-4.371-15.83 0-15.83 4.371-12.287 7.915-7.915 7.915-3.544 7.915 0 4.371 0 0" fill="#ed1c24"/>
<path transform="matrix(1,0,0,-1,307.9082,638.2287)" stroke-width="1" stroke-linecap="butt" stroke-miterlimit="10" stroke-linejoin="miter" fill="none" stroke="#ed1c24" d="M0 0C0-4.371-3.544-7.915-7.915-7.915-12.287-7.915-15.83-4.371-15.83 0-15.83 4.371-12.287 7.915-7.915 7.915-3.544 7.915 0 4.371 0 0Z"/>
</g>
</g>
</svg>
